<?xml version="1.0" encoding="UTF-8"?>
<svg xmlns="http://www.w3.org/2000/svg" width="131" height="72" viewBox="0 0 131 72" fill="none">
  <path d="M11.5035 57.3976C-1.62046 49.9231 -1.65242 40.2521 7.02123 38.1901C15.6932 36.128 15.7369 44.874 27.872 43.7421C40.007 42.6102 49.636 43.6681 53.8442 49.2335C58.0977 54.8596 57.5696 62.6754 45.929 64.0748C45.929 64.0748 29.4597 67.622 11.5035 57.3959V57.3976Z" stroke="url(#paint0_linear_1157_4513)" stroke-width="0.252288" stroke-miterlimit="10"></path>
  <path d="M15.1456 57.6286C0.623938 49.3586 0.588616 38.6565 10.1856 36.3758C19.7827 34.0952 19.8298 43.7712 33.2582 42.5182C46.6866 41.2669 57.3416 42.4358 61.9971 48.595C66.7031 54.8198 66.1195 63.4699 53.2377 65.0189C53.2377 65.0189 35.0124 68.9445 15.1456 57.6286Z" stroke="url(#paint1_linear_1157_4513)" stroke-width="0.252288" stroke-miterlimit="10"></path>
  <path d="M18.8145 57.687C3.01796 48.6904 2.97927 37.0482 13.4189 34.5657C23.8586 32.0849 23.9107 42.6103 38.5199 41.2479C53.129 39.8856 64.7191 41.1588 69.7834 47.8596C74.9031 54.6326 74.2674 64.0413 60.2553 65.7266C60.2553 65.7266 40.4289 69.997 18.8145 57.687Z" stroke="url(#paint2_linear_1157_4513)" stroke-width="0.252288" stroke-miterlimit="10"></path>
  <path d="M22.4608 57.9646C5.30523 48.1943 5.26319 35.5497 16.601 32.8552C27.9388 30.1608 27.9943 41.5928 43.8598 40.1127C59.7254 38.6343 72.3129 40.0168 77.8127 47.2928C83.3732 54.6479 82.6836 64.8655 67.4656 66.6954C67.4656 66.6954 45.9337 71.3325 22.4625 57.9646H22.4608Z" stroke="url(#paint3_linear_1157_4513)" stroke-width="0.252288" stroke-miterlimit="10"></path>
  <path d="M26.1652 58.0722C7.71963 47.5669 7.67422 33.972 19.8648 31.074C32.0553 28.1761 32.1159 40.4676 49.1739 38.8782C66.2319 37.2871 79.7663 38.7739 85.6799 46.5965C91.6574 54.5049 90.9157 65.4911 74.554 67.4573C74.554 67.4573 51.4041 72.4442 26.1669 58.0705L26.1652 58.0722Z" stroke="url(#paint4_linear_1157_4513)" stroke-width="0.252288" stroke-miterlimit="10"></path>
  <path d="M29.8177 58.4054C10.0534 47.15 10.0063 32.5846 23.0664 29.4798C36.1265 26.3749 36.1921 39.5444 54.4679 37.8406C72.7436 36.1368 87.2451 37.7296 93.5809 46.1106C99.9856 54.5841 99.1917 66.3541 81.6611 68.4633C81.6611 68.4633 56.8579 73.805 29.8177 58.4054Z" stroke="url(#paint5_linear_1157_4513)" stroke-width="0.252288" stroke-miterlimit="10"></path>
  <path d="M33.4421 58.4259C12.3021 46.3867 12.2516 30.8071 26.2216 27.4853C40.1916 24.1652 40.2606 38.2513 59.8095 36.4281C79.3585 34.6049 94.8691 36.3087 101.647 45.275C108.498 54.3371 107.648 66.928 88.8966 69.1834C88.8966 69.1834 62.366 74.8986 33.4421 58.4259Z" stroke="url(#paint6_linear_1157_4513)" stroke-width="0.252288" stroke-miterlimit="10"></path>
  <path d="M37.219 58.582C14.8108 45.8196 14.757 29.3049 29.5646 25.7846C44.3722 22.2644 44.4462 37.1964 65.1691 35.2639C85.892 33.3314 102.333 35.1378 109.516 44.6406C116.779 54.2477 115.877 67.5938 96.0004 69.9838C96.0004 69.9838 67.877 76.0403 37.219 58.5804V58.582Z" stroke="url(#paint7_linear_1157_4513)" stroke-width="0.252288" stroke-miterlimit="10"></path>
  <path d="M130.61 35.2275V31.8872C127.891 31.7543 125.852 32.2488 124.493 33.374C123.134 34.4992 122.455 36.1862 122.455 38.4349V39.037H119.863V42.3117H122.455V57.4456H126.429V42.3117H130.61V39.037H126.429V38.736C126.429 37.4224 126.74 36.4923 127.363 35.9457C127.985 35.4007 129.068 35.1602 130.612 35.2275M118.549 35.2275V31.8872C115.83 31.7543 113.791 32.2488 112.432 33.374C111.073 34.4992 110.394 36.1862 110.394 38.4349V39.037H107.802V42.3117H110.394V57.4456H114.368V42.3117H123.741V39.037H114.368V38.736C114.368 37.4224 114.679 36.4923 115.302 35.9457C115.924 35.4007 117.007 35.1602 118.549 35.2275ZM96.1882 42.1099C97.2024 42.1099 98.1342 42.3336 98.9886 42.7776C99.8413 43.2233 100.526 43.9079 101.044 44.8329C101.562 45.758 101.821 46.8882 101.821 48.2237C101.821 49.5591 101.562 50.718 101.044 51.6313C100.526 52.5445 99.8397 53.224 98.9886 53.6697C98.1359 54.1154 97.2024 54.3375 96.1882 54.3375C95.174 54.3375 94.2406 54.1154 93.3895 53.6697C92.5368 53.224 91.8506 52.5445 91.3325 51.6313C90.8145 50.718 90.5555 49.5827 90.5555 48.2237C90.5555 46.8647 90.8145 45.758 91.3325 44.8329C91.8506 43.9096 92.5368 43.2233 93.3895 42.7776C94.2422 42.3319 95.174 42.1099 96.1882 42.1099ZM96.1882 38.8033C94.3448 38.8033 92.6915 39.1817 91.2282 39.9386C89.765 40.6954 88.6129 41.787 87.7719 43.2133C86.9309 44.6395 86.5105 46.3097 86.5105 48.2254C86.5105 50.1411 86.9309 51.8163 87.7719 53.2526C88.6129 54.689 89.765 55.7873 91.2282 56.5441C92.6915 57.301 94.3432 57.6794 96.1882 57.6794C98.0333 57.6794 99.69 57.301 101.165 56.5441C102.638 55.7873 103.792 54.6957 104.621 53.2694C105.451 51.8449 105.866 50.1629 105.866 48.2254C105.866 46.2878 105.451 44.6395 104.621 43.2133C103.792 41.7887 102.64 40.6971 101.165 39.9386C99.69 39.1817 98.0316 38.8033 96.1882 38.8033ZM78.7703 57.4456H82.7093V31.6299H78.7703V57.4456ZM64.2906 42.1452C65.3957 42.1452 66.3863 42.3958 67.2626 42.8971C68.1372 43.3983 68.8284 44.1114 69.3364 45.0348C69.8426 45.9598 70.0966 47.0228 70.0966 48.2254C70.0966 49.4279 69.8426 50.5195 69.3364 51.4328C68.8284 52.3461 68.1372 53.0525 67.2626 53.5537C66.3863 54.0549 65.3957 54.3055 64.2906 54.3055C62.5398 54.3055 61.1404 53.7656 60.0909 52.6858C59.0431 51.606 58.5183 50.1192 58.5183 48.2254C58.5183 46.3315 59.0414 44.8464 60.0909 43.7649C61.1387 42.6851 62.5381 42.1452 64.2906 42.1452ZM63.0813 38.8049C61.423 38.8049 59.9412 39.1834 58.6411 39.9402C57.3393 40.6971 56.32 41.7887 55.5817 43.2149C54.845 44.6412 54.4766 46.3113 54.4766 48.2271C54.4766 50.1428 54.845 51.8465 55.5817 53.2711C56.3183 54.6974 57.3393 55.789 58.6411 56.5458C59.9429 57.3027 61.423 57.6811 63.0813 57.6811C64.7397 57.6811 66.2837 57.269 67.5048 56.4449C68.7259 55.6208 69.5786 54.5292 70.063 53.1702V57.4473H74.0374V31.6316H70.063V43.3158C69.5786 41.9569 68.7259 40.8653 67.5048 40.0412C66.2837 39.217 64.8087 38.8049 63.0813 38.8049ZM40.9624 42.1452C42.0691 42.1452 43.0598 42.3958 43.9344 42.8971C44.809 43.3983 45.5002 44.1114 46.0082 45.0348C46.5144 45.9598 46.7684 47.0228 46.7684 48.2254C46.7684 49.4279 46.5144 50.5195 46.0082 51.4328C45.5002 52.3461 44.809 53.0525 43.9344 53.5537C43.0581 54.0549 42.0675 54.3055 40.9624 54.3055C39.2116 54.3055 37.8122 53.7656 36.7627 52.6858C35.7148 51.606 35.1901 50.1192 35.1901 48.2254C35.1901 46.3315 35.7148 44.8464 36.7627 43.7649C37.8105 42.6851 39.2099 42.1452 40.9624 42.1452ZM39.7531 38.8049C38.0948 38.8049 36.613 39.1834 35.3129 39.9402C34.0111 40.6971 32.9918 41.7887 32.2535 43.2149C31.5168 44.6412 31.1484 46.3113 31.1484 48.2271C31.1484 50.1428 31.5168 51.8465 32.2535 53.2711C32.9901 54.6974 34.0111 55.789 35.3129 56.5458C36.6147 57.3027 38.0948 57.6811 39.7531 57.6811C41.4115 57.6811 42.9555 57.269 44.1766 56.4449C45.3976 55.6208 46.2605 54.5292 46.7684 53.1702V57.4473H50.7075V39.0387H46.7684V43.3158C46.2605 41.9569 45.3976 40.8653 44.1766 40.0412C42.9555 39.217 41.4805 38.8049 39.7531 38.8049Z" fill="#1A1A1A"></path>
  <path d="M65.2917 8.72505H61.3526V27.1336H65.2917V8.72505ZM39.7518 17.9117C39.7518 19.8055 39.2219 21.2923 38.1623 22.3721C37.1027 23.4519 35.6966 23.9918 33.9458 23.9918C32.8408 23.9918 31.8484 23.7412 30.9738 23.24C30.0975 22.7388 29.4063 22.0324 28.9 21.1191C28.3938 20.2058 28.1398 19.1378 28.1398 17.9117C28.1398 16.6856 28.3938 15.6461 28.9 14.7211C29.4063 13.7977 30.0975 13.0846 30.9738 12.5834C31.8484 12.0822 32.8408 11.8316 33.9458 11.8316C35.6966 11.8316 37.1027 12.3782 38.1623 13.4681C39.2219 14.5596 39.7518 16.0397 39.7518 17.9117ZM42.6547 22.9558C43.3914 21.5312 43.7598 19.8493 43.7598 17.9117C43.7598 15.9741 43.3914 14.3258 42.6547 12.8996C41.9164 11.475 40.8971 10.3834 39.5953 9.62488C38.2935 8.86801 36.8134 8.48958 35.1551 8.48958C33.4967 8.48958 31.9527 8.90165 30.7316 9.72579C29.5106 10.5499 28.6578 11.6415 28.1734 13.0005V1.14128H24.2344V27.1336H28.1734V22.8565C28.6578 24.2155 29.5106 25.3071 30.7316 26.1312C31.9527 26.9554 33.4277 27.3674 35.1551 27.3674C36.8824 27.3674 38.2935 26.989 39.5953 26.2321C40.8971 25.4753 41.9164 24.3837 42.6547 22.9574M57.2387 12.5666H58.4143V8.42399C56.8468 8.42399 55.4642 8.77551 54.2667 9.47687C53.0675 10.1782 52.1458 11.1302 51.5016 12.3328V8.72505H47.5626V27.1336H51.5016V17.8125C51.5016 15.9422 52.0264 14.6 53.0742 13.7859C54.1221 12.9736 55.5113 12.5666 57.2387 12.5666ZM65.7054 3.38832C65.7054 2.04952 64.6559 1 63.3171 1C61.9783 1 60.9271 2.04952 60.9271 3.38832C60.9271 4.72713 61.9985 5.77833 63.3171 5.77833C64.6357 5.77833 65.7054 4.70695 65.7054 3.38832ZM70.0599 27.1336H73.999V1.14128H70.0599V27.1336ZM78.7689 27.1336H82.7079V1.14128H78.7689V27.1336ZM102.827 20.1049V17.0405H95.879V10.0302H92.7507V17.0405H85.7388V20.1049H92.7507V27.1168H95.8151V27.1101H95.879V20.1049H102.827Z" fill="#1A1A1A"></path>
  <path d="M42.6547 22.9558C43.3914 21.5312 43.7598 19.8493 43.7598 17.9117C43.7598 15.9741 43.3914 14.3258 42.6547 12.8996C41.9164 11.475 40.8971 10.3834 39.5953 9.62488C38.2935 8.86801 36.8134 8.48958 35.1551 8.48958C33.4967 8.48958 31.9527 8.90165 30.7316 9.72579C29.5106 10.5499 28.6578 11.6415 28.1734 13.0005V1.14128H24.2344V27.1336H28.1734V22.8565C28.6578 24.2155 29.5106 25.3071 30.7316 26.1312C31.9527 26.9554 33.4277 27.3674 35.1551 27.3674C36.8824 27.3674 38.2935 26.989 39.5953 26.2321C40.8971 25.4753 41.9164 24.3837 42.6547 22.9574M65.2917 8.72505H61.3526V27.1336H65.2917V8.72505ZM39.7518 17.9117C39.7518 19.8055 39.2219 21.2923 38.1623 22.3721C37.1027 23.4519 35.6966 23.9918 33.9458 23.9918C32.8408 23.9918 31.8484 23.7412 30.9738 23.24C30.0975 22.7388 29.4063 22.0324 28.9 21.1191C28.3938 20.2058 28.1398 19.1378 28.1398 17.9117C28.1398 16.6856 28.3938 15.6461 28.9 14.7211C29.4063 13.7977 30.0975 13.0846 30.9738 12.5834C31.8484 12.0822 32.8408 11.8316 33.9458 11.8316C35.6966 11.8316 37.1027 12.3782 38.1623 13.4681C39.2219 14.5596 39.7518 16.0397 39.7518 17.9117ZM57.2387 12.5666H58.4143V8.42399C56.8468 8.42399 55.4642 8.77551 54.2667 9.47687C53.0675 10.1782 52.1458 11.1302 51.5016 12.3328V8.72505H47.5626V27.1336H51.5016V17.8125C51.5016 15.9422 52.0264 14.6 53.0742 13.7859C54.1221 12.9736 55.5113 12.5666 57.2387 12.5666ZM65.7054 3.38832C65.7054 2.04952 64.6559 1 63.3171 1C61.9783 1 60.9271 2.04952 60.9271 3.38832C60.9271 4.72713 61.9985 5.77833 63.3171 5.77833C64.6357 5.77833 65.7054 4.70695 65.7054 3.38832ZM70.0599 27.1336H73.999V1.14128H70.0599V27.1336ZM78.7689 27.1336H82.7079V1.14128H78.7689V27.1336ZM102.827 20.1049V17.0405H95.879V10.0302H92.7507V17.0405H85.7388V20.1049H92.7507V27.1168H95.8151V27.1101H95.879V20.1049H102.827Z" stroke="#1A1A1A" stroke-width="0.168192" stroke-miterlimit="10"></path>
  <defs>
    <linearGradient id="paint0_linear_1157_4513" x1="1" y1="51.0449" x2="56.2835" y2="51.0449" gradientUnits="userSpaceOnUse">
      <stop stop-color="#D4311F"></stop>
      <stop offset="1" stop-color="#2EA05F"></stop>
    </linearGradient>
    <linearGradient id="paint1_linear_1157_4513" x1="3.52344" y1="50.6007" x2="64.696" y2="50.6007" gradientUnits="userSpaceOnUse">
      <stop stop-color="#D4311F"></stop>
      <stop offset="1" stop-color="#2EA05F"></stop>
    </linearGradient>
    <linearGradient id="paint2_linear_1157_4513" x1="6.17187" y1="50.041" x2="72.7194" y2="50.041" gradientUnits="userSpaceOnUse">
      <stop stop-color="#D4311F"></stop>
      <stop offset="1" stop-color="#2EA05F"></stop>
    </linearGradient>
    <linearGradient id="paint3_linear_1157_4513" x1="8.73047" y1="49.661" x2="81.0018" y2="49.661" gradientUnits="userSpaceOnUse">
      <stop stop-color="#D4311F"></stop>
      <stop offset="1" stop-color="#2EA05F"></stop>
    </linearGradient>
    <linearGradient id="paint4_linear_1157_4513" x1="11.4023" y1="49.1428" x2="89.1079" y2="49.1428" gradientUnits="userSpaceOnUse">
      <stop stop-color="#D4311F"></stop>
      <stop offset="1" stop-color="#2EA05F"></stop>
    </linearGradient>
    <linearGradient id="paint5_linear_1157_4513" x1="14" y1="48.8397" x2="97.2542" y2="48.8397" gradientUnits="userSpaceOnUse">
      <stop stop-color="#D4311F"></stop>
      <stop offset="1" stop-color="#2EA05F"></stop>
    </linearGradient>
    <linearGradient id="paint6_linear_1157_4513" x1="16.5234" y1="48.1937" x2="105.576" y2="48.1937" gradientUnits="userSpaceOnUse">
      <stop stop-color="#D4311F"></stop>
      <stop offset="1" stop-color="#2EA05F"></stop>
    </linearGradient>
    <linearGradient id="paint7_linear_1157_4513" x1="19.2852" y1="47.7348" x2="113.681" y2="47.7348" gradientUnits="userSpaceOnUse">
      <stop stop-color="#D4311F"></stop>
      <stop offset="1" stop-color="#2EA05F"></stop>
    </linearGradient>
  </defs>
</svg>
